<?xml version="1.0" encoding="UTF-8"?> <svg xmlns="http://www.w3.org/2000/svg" width="20" height="20" viewBox="0 0 20 20" fill="none"> <path d="M18.3333 17.7083C18.3333 18.05 18.05 18.3333 17.7083 18.3333H2.29166C1.94999 18.3333 1.66666 18.05 1.66666 17.7083C1.66666 17.3667 1.94999 17.0833 2.29166 17.0833H17.7083C18.05 17.0833 18.3333 17.3667 18.3333 17.7083Z" fill="#66B41F"></path> <path d="M12.825 3.76669L3.875 12.7167C3.53334 13.0584 2.98334 13.0584 2.65 12.7167H2.64167C1.48334 11.55 1.48334 9.66669 2.64167 8.50835L8.6 2.55002C9.76667 1.38335 11.65 1.38335 12.8167 2.55002C13.1583 2.87502 13.1583 3.43335 12.825 3.76669Z" fill="#66B41F"></path> <path d="M17.35 7.07505L14.8083 4.53338C14.4667 4.19171 13.9167 4.19171 13.5833 4.53338L4.63333 13.4834C4.29166 13.8167 4.29166 14.3667 4.63333 14.7084L7.17499 17.2584C8.34166 18.4167 10.225 18.4167 11.3917 17.2584L17.3417 11.3C18.525 10.1334 18.525 8.24171 17.35 7.07505ZM10.6333 14.6L9.62499 15.6167C9.41666 15.825 9.07499 15.825 8.85833 15.6167C8.64999 15.4084 8.64999 15.0667 8.85833 14.85L9.87499 13.8334C10.075 13.6334 10.425 13.6334 10.6333 13.8334C10.8417 14.0417 10.8417 14.4 10.6333 14.6ZM13.9417 11.2917L11.9083 13.3334C11.7 13.5334 11.3583 13.5334 11.1417 13.3334C10.9333 13.125 10.9333 12.7834 11.1417 12.5667L13.1833 10.525C13.3833 10.325 13.7333 10.325 13.9417 10.525C14.15 10.7417 14.15 11.0834 13.9417 11.2917Z" fill="#66B41F"></path> </svg> 